<?xml version="1.0" encoding="UTF-8" standalone="no"?>

<svg
   height="512"
   width="512"
   version="1.1"
   id="Capa_1"
   viewBox="0 0 33.07456 33.07456"
   xml:space="preserve"
   sodipodi:docname="tomato.svg"
   inkscape:version="1.1.1 (c3084ef, 2021-09-22)"
   xmlns:inkscape="http://www.inkscape.org/namespaces/inkscape"
   xmlns:sodipodi="http://sodipodi.sourceforge.net/DTD/sodipodi-0.dtd"
   xmlns="http://www.w3.org/2000/svg"
   xmlns:svg="http://www.w3.org/2000/svg"><defs
   id="defs837" /><sodipodi:namedview
   id="namedview835"
   pagecolor="#ffffff"
   bordercolor="#666666"
   borderopacity="1.0"
   inkscape:pageshadow="2"
   inkscape:pageopacity="0.0"
   inkscape:pagecheckerboard="0"
   showgrid="false"
   inkscape:zoom="0.50984364"
   inkscape:cx="383.4509"
   inkscape:cy="447.19593"
   inkscape:window-width="1293"
   inkscape:window-height="679"
   inkscape:window-x="0"
   inkscape:window-y="25"
   inkscape:window-maximized="0"
   inkscape:current-layer="Capa_1" />
<g
   id="g832"
   transform="matrix(0.599167,0,0,0.599167,1.0554038,1.0551043)">
	<path
   style="fill:#88c057"
   d="M 40.47,8.458 C 37.908,6.816 33.096,4.528 28.473,6.642 28.028,6.846 27.521,6.525 27.521,6.035 V 1.786 C 27.522,0.804 26.855,0 26.04,0 h -2.223 c -0.815,0 -1.482,0.804 -1.482,1.786 v 4.501 c 0,0.425 -0.385,0.747 -0.802,0.661 -1.877,-0.387 -6.751,-0.989 -11.412,1.795 -0.638,0.381 -0.268,1.381 0.464,1.247 2.17,-0.397 5.026,-0.67 6.956,0.092 0.506,0.199 0.579,0.891 0.124,1.189 -1.371,0.895 -3.9,2.953 -5.557,6.737 -0.282,0.644 0.51,1.221 1.053,0.774 2.117,-1.744 5.6,-4.107 8.554,-3.726 0.348,0.045 0.612,0.329 0.607,0.68 -0.03,1.982 -0.005,8.716 1.632,11.265 0.258,0.402 0.836,0.422 1.117,0.035 1.043,-1.433 3.304,-5.233 3.211,-11.167 -0.006,-0.39 0.307,-0.707 0.697,-0.694 1.49,0.048 5.008,0.469 7.798,3.194 0.457,0.447 1.214,0.061 1.134,-0.573 -0.219,-1.735 -1.174,-4.359 -4.631,-6.394 -0.525,-0.309 -0.436,-1.095 0.155,-1.24 1.194,-0.293 3.252,-0.572 6.644,-0.46 0.689,0.021 0.97,-0.873 0.391,-1.244 z"
   id="path824" />
	<path
   style="fill:#d13834"
   d="M 41.248,9.99 C 41.155,9.925 41.047,9.884 40.934,9.87 40.534,9.821 40.133,9.775 39.733,9.721 39.59,9.707 39.446,9.696 39.304,9.682 36.39,9.634 34.561,9.888 33.458,10.156 c -0.599,0.146 -0.707,0.931 -0.175,1.244 3.457,2.035 4.411,4.659 4.63,6.393 0.08,0.634 -0.677,1.02 -1.134,0.573 -2.79,-2.724 -6.308,-3.145 -7.798,-3.194 -0.39,-0.013 -0.704,0.304 -0.697,0.694 0.092,5.934 -2.168,9.734 -3.211,11.167 -0.282,0.387 -0.859,0.367 -1.117,-0.035 -1.637,-2.549 -1.662,-9.283 -1.632,-11.265 0.005,-0.35 -0.259,-0.635 -0.607,-0.68 -2.954,-0.382 -6.437,1.982 -8.554,3.726 -0.543,0.447 -1.335,-0.13 -1.053,-0.774 1.655,-3.779 4.18,-5.836 5.552,-6.733 0.457,-0.299 0.381,-0.994 -0.128,-1.19 C 17.163,9.939 16.758,9.833 16.331,9.758 16.255,9.744 16.174,9.743 16.097,9.754 13.672,10.084 11.29,10.545 8.978,11.165 8.876,11.192 8.781,11.241 8.7,11.309 3.597,15.555 0.393,21.668 0.393,28.465 c 0,12.821 11.393,23.214 25.446,23.214 14.053,0 25.446,-10.393 25.446,-23.214 C 51.286,20.928 47.348,14.23 41.248,9.99 Z"
   id="path826" />
	<path
   style="fill:#ed7161"
   d="M 5.791,34.636 C 5.449,34.636 5.116,34.461 4.93,34.146 4.182,32.883 3.692,31.488 3.473,30 c -0.08,-0.547 0.298,-1.055 0.844,-1.135 0.556,-0.086 1.055,0.298 1.135,0.844 0.178,1.213 0.593,2.395 1.199,3.418 0.281,0.475 0.125,1.089 -0.351,1.37 -0.16,0.094 -0.336,0.139 -0.509,0.139 z"
   id="path828" />
	<path
   style="fill:#ed7161"
   d="m 4.588,26.678 c -0.023,0 -0.047,-0.001 -0.07,-0.003 C 3.966,26.637 3.551,26.159 3.589,25.609 3.683,24.282 3.955,22.993 4.4,21.775 c 0.189,-0.519 0.761,-0.783 1.283,-0.596 0.519,0.189 0.785,0.764 0.596,1.283 -0.381,1.041 -0.614,2.146 -0.694,3.285 -0.037,0.528 -0.476,0.931 -0.997,0.931 z"
   id="path830" />
</g>
</svg>
