<svg width="512" height="512" xmlns="http://www.w3.org/2000/svg" version="1.1">
<g>
  <path stroke-width="0" stroke="#ffffff" stroke-miterlimit="4" fill="#df2d0f" id="path974" d="m228.31538,504.44422c-23.37295,-3.70079 -47.65542,-10.72744 -64.74537,-18.73538c-52.91204,-24.79336 -94.70049,-69.92213 -115.04547,-124.24153c-11.241,-30.01255 -16.04017,-63.93286 -13.3642,-94.45786c2.87614,-32.80844 8.88997,-54.29651 23.5441,-84.12546c11.16148,-22.71959 25.18385,-39.1884 39.2098,-46.05066c8.1619,-3.99323 9.02321,-4.09854 22.70416,-2.77561c19.47147,1.88287 44.44809,1.61676 48.29586,-0.51458c3.03175,-1.67931 3.29178,-1.12197 5.79783,12.42629c4.5803,24.76223 20.60944,50.49358 31.45459,50.49358c6.25556,0 9.0367,-3.50565 12.04989,-15.18903c3.28791,-12.74843 8.25632,-23.82085 17.71726,-39.4839c4.22747,-6.99881 8.37296,-14.53106 9.21217,-16.73835c1.42231,-3.74098 1.92514,-3.91856 7.41202,-2.61766c8.57476,2.03302 26.38692,1.92194 35.2654,-0.21994c10.6609,-2.57184 24.65115,-9.35885 34.74113,-16.85367c7.64116,-5.67588 19.62559,-18.37842 22.95879,-24.33452c1.05993,-1.89401 3.18374,-1.31378 12.71909,3.47501c19.61929,9.85308 38.47456,23.85837 57.1104,42.42046c31.80459,31.67865 51.79498,68.50255 61.23703,112.80349c4.00618,18.79656 3.95462,69.44706 -0.08969,87.98765c-17.15387,78.64185 -71.11231,139.96176 -146.1393,166.07696c-24.25792,8.44363 -45.46412,11.72725 -74.11831,11.47672c-13.2355,-0.11588 -25.80277,-0.48563 -27.92725,-0.82201l0.00007,0zm39.22426,-150.45148c9.4713,-3.54368 19.41339,-12.3295 23.89235,-21.11373c1.64276,-3.22177 10.06266,-27.7591 18.71091,-54.52741c8.64825,-26.7683 17.39958,-53.36279 19.44739,-59.09886c2.10728,-5.90263 3.02285,-10.42921 2.10948,-10.42921c-0.8876,0 -18.42851,11.0069 -38.97975,24.45976c-20.55127,13.45287 -43.62346,28.47941 -51.27155,33.39229c-18.5864,11.93931 -27.84518,21.11083 -31.69254,31.39389c-13.3083,35.56956 21.68001,69.43135 57.78371,55.92325zm-26.3935,-23.04084c-10.22637,-6.23542 -13.26948,-15.99604 -8.4113,-26.97879c2.60969,-5.89962 4.48155,-7.77449 10.35665,-10.37333c9.1378,-4.04206 16.00944,-2.90623 23.40157,3.86815c4.57247,4.19036 5.60825,6.33748 6.24274,12.94086c0.61115,6.36027 0.08714,9.00708 -2.66566,13.46098c-6.18049,10.00024 -18.993,13.13744 -28.924,7.08213zm185.23757,-137.64093c6.05608,-6.05608 5.25648,-10.78802 -4.00299,-23.68925c-14.19443,-19.77719 -42.64159,-46.28995 -53.19177,-49.57481c-5.29215,-1.64775 -12.17694,1.81202 -13.99732,7.03395c-2.37371,6.80921 0.35547,12.28176 9.10134,18.24989c10.78162,7.35734 28.11513,24.77843 38.13607,38.32876c11.44024,15.46948 16.21348,17.39263 23.95467,9.65147zm-229.49854,-28.1356c-6.83771,-13.70827 -9.47139,-28.22221 -8.25328,-45.4829c0.74884,-10.61123 0.51664,-12.84346 -1.33603,-12.84346c-1.23331,0 -2.24237,0.59984 -2.24237,1.33297c0,0.73313 -4.69314,3.68221 -10.42921,6.55351c-11.42578,5.71938 -15.06441,5.99918 -56.78125,4.36666c-16.26739,-0.6366 -17.38464,-0.47416 -26.06999,3.79046c-4.99082,2.45059 -13.88281,8.99174 -19.75995,14.53595l-10.68575,10.08039l5.08183,-9.02458c10.01702,-17.78885 35.93864,-40.41898 60.82809,-53.10421c15.99176,-8.1504 28.83058,-10.97018 50.77489,-11.15165c9.82126,-0.08135 17.8568,-0.62355 17.8568,-1.20518c0,-0.5816 -1.39056,-3.78499 -3.09013,-7.11861c-1.69957,-3.33362 -3.09272,-7.47848 -3.09592,-9.21082c-0.01159,-7.14799 -12.502,-20.3364 -22.16821,-23.40987c-3.25389,-1.0346 -3.25843,-1.07942 -0.22944,-2.26337c5.02359,-1.96359 22.56044,-1.55226 31.13284,0.73023c10.91257,2.90558 21.93372,9.16558 32.11895,18.24354l8.57096,7.63916l4.2604,-3.08702c6.85586,-4.96766 22.76353,-21.97954 28.47761,-30.45431c2.90027,-4.30152 6.98124,-11.76392 9.06882,-16.58309c2.08758,-4.8192 4.26703,-8.77402 4.84321,-8.78853c1.82595,-0.04612 3.25934,16.99678 2.38824,28.3954c-0.98575,12.89919 -5.24399,24.5069 -13.55718,36.95597l-6.00036,8.98562l5.74325,2.4405c3.34866,1.42296 10.58493,2.5086 17.35569,2.60383c10.15863,0.14276 12.8667,-0.45944 21.63095,-4.81095c5.51019,-2.73586 14.3476,-8.86049 19.63873,-13.6103l9.62023,-8.63603l-2.33104,6.60686c-7.17061,20.32375 -24.94808,38.0246 -47.31841,47.11446c-11.80295,4.79595 -29.24786,5.08181 -46.07187,0.75494c-6.37341,-1.63915 -12.01962,-2.72068 -12.54713,-2.40338c-0.52753,0.3173 -1.29141,4.03504 -1.69755,8.26167c-0.55669,5.79368 -2.91793,11.33711 -9.59527,22.52656c-10.16739,17.03783 -15.66326,28.8385 -17.16907,36.86515c-0.57845,3.08338 -1.57435,5.60616 -2.21315,5.60616c-0.63878,0 -3.67576,-5.04078 -6.74886,-11.20174l-0.00005,0z"/>
</g>
</svg>