<?xml version="1.0" encoding="UTF-8" standalone="no"?>
<svg
   enable-background="new 0 0 50 50"
   height="444.14035"
   version="1.1"
   viewBox="0 0 391.25849 444.14035"
   width="391.25848"
   xml:space="preserve"
   id="svg870"
   sodipodi:docname="icon.svg"
   inkscape:version="1.1.1 (c3084ef, 2021-09-22)"
   xmlns:inkscape="http://www.inkscape.org/namespaces/inkscape"
   xmlns:sodipodi="http://sodipodi.sourceforge.net/DTD/sodipodi-0.dtd"
   xmlns="http://www.w3.org/2000/svg"
   xmlns:svg="http://www.w3.org/2000/svg"><defs
   id="defs874" /><sodipodi:namedview
   id="namedview872"
   pagecolor="#ffffff"
   bordercolor="#666666"
   borderopacity="1.0"
   inkscape:pageshadow="2"
   inkscape:pageopacity="0.0"
   inkscape:pagecheckerboard="0"
   showgrid="false"
   inkscape:zoom="0.47692372"
   inkscape:cx="145.72561"
   inkscape:cy="236.93516"
   inkscape:window-width="1293"
   inkscape:window-height="679"
   inkscape:window-x="79"
   inkscape:window-y="47"
   inkscape:window-maximized="0"
   inkscape:current-layer="svg870"
   fit-margin-top="0"
   fit-margin-left="0"
   fit-margin-right="0"
   fit-margin-bottom="0" />
  
<path
   style="fill:#df2d0f;fill-opacity:1;stroke:#ffffff;stroke-width:7;stroke-miterlimit:4;stroke-dasharray:none;stroke-opacity:1"
   d="m 170.81301,439.91973 c -20.16994,-3.19364 -41.12476,-9.25736 -55.87272,-16.1679 C 69.279274,402.35613 33.217474,363.41177 15.660554,316.53625 5.9600058,290.63659 1.8185059,261.36469 4.1277658,235.02281 c 2.482,-28.3124 7.6717082,-46.85576 20.3176482,-72.59698 9.63192,-19.60612 21.73268,-33.81806 33.83652,-39.73992 7.0434,-3.446 7.78668,-3.53688 19.5928,-2.39524 16.80312,1.62484 38.356956,1.3952 41.677436,-0.44406 2.61628,-1.44918 2.84068,-0.96822 5.0033,10.7234 3.95262,21.36884 17.78514,43.57398 27.14408,43.57398 5.3983,0 7.79832,-3.02524 10.39858,-13.10754 2.83734,-11.0014 7.12488,-20.55646 15.2893,-34.07306 3.64814,-6.0397 7.22554,-12.53974 7.94974,-14.44454 1.2274,-3.22832 1.66132,-3.38156 6.39628,-2.25894 7.39968,1.75442 22.77088,1.65856 30.43266,-0.1898 9.19994,-2.2194 21.27298,-8.07632 29.98024,-14.544056 6.59402,-4.89806 16.93612,-15.85986 19.81254,-20.99974 0.91468,-1.63446 2.74744,-1.13374 10.97608,2.9988 16.93068,8.50282 33.20204,20.58884 49.28404,36.607196 27.44612,27.33744 44.69704,59.11502 52.84516,97.345 3.45718,16.2207 3.41268,59.9301 -0.0774,75.9299 -14.80312,67.86484 -61.36714,120.78152 -126.1125,143.31792 -20.93364,7.28652 -39.23376,10.12016 -63.9612,9.90396 -11.42172,-0.1 -22.26678,-0.41908 -24.10012,-0.70936 z m 33.849,-129.83374 c 8.17336,-3.05806 16.753,-10.63988 20.61816,-18.22032 1.41764,-2.78026 8.68368,-23.95502 16.14678,-47.05502 7.4631,-23.1 15.01516,-46.05 16.78234,-51 1.8185,-5.09374 2.6086,-9 1.8204,-9 -0.76596,0 -15.90308,9.49852 -33.638,21.10782 -17.73494,11.6093 -37.64534,24.57662 -44.24534,28.81624 -16.03934,10.30316 -24.0293,18.21782 -27.34942,27.0917 -11.48454,30.69514 18.709,59.91654 49.86508,48.25958 z m -22.77656,-19.88334 c -8.82496,-5.38092 -11.45104,-13.80396 -7.25862,-23.28164 2.25206,-5.09114 3.8674,-6.70908 8.93738,-8.95178 7.88556,-3.48814 13.81552,-2.50796 20.19464,3.33806 3.94586,3.61612 4.8397,5.469 5.38724,11.16746 0.5274,5.48866 0.0752,7.77276 -2.30036,11.6163 -5.33352,8.62982 -16.39022,11.3371 -24.96028,6.1116 z M 341.73823,171.42391 c 5.22616,-5.22616 4.53614,-9.30964 -3.45442,-20.4429 -12.24924,-17.06694 -36.79802,-39.94642 -45.90242,-42.78112 -4.56692,-1.42194 -10.50822,1.5637 -12.07914,6.07002 -2.04842,5.87608 0.30676,10.59868 7.8541,15.74894 9.30412,6.3491 24.26226,21.38282 32.90994,33.07622 9.87248,13.34956 13.9916,15.00916 20.67194,8.32884 z M 143.68997,147.14399 c -5.90068,-11.8297 -8.17344,-24.35466 -7.12226,-39.24996 0.64622,-9.157076 0.44584,-11.083396 -1.15294,-11.083396 -1.0643,0 -1.93508,0.51764 -1.93508,1.1503 0,0.63266 -4.05,3.177596 -9,5.655416 -9.86,4.9356 -13,5.17706 -48.999996,3.76826 -14.03812,-0.54936 -15.00226,-0.40918 -22.49738,3.27102 -4.30688,2.11476 -11.98032,7.75952 -17.05206,12.54396 l -9.22138,8.69898 4.38542,-7.78786 c 8.6443,-15.35108 31.01364,-34.879996 52.49226,-45.826856 13.80026,-7.03348 24.879656,-9.46684 43.816736,-9.62344 8.47536,-0.0702 15.40972,-0.5381 15.40972,-1.04002 0,-0.5019 -1.2,-3.2663 -2.66666,-6.14308 -1.46666,-2.87678 -2.6689,-6.45364 -2.67166,-7.94858 -0.01,-6.16844 -10.78874,-17.54952 -19.1303,-20.2018 -2.80798,-0.89282 -2.8119,-0.9315 -0.198,-1.9532 4.33516,-1.6945 19.46878,-1.33954 26.86642,0.63016 9.41712,2.5074 18.92794,7.90954 27.7174,15.74346 l 7.3964,6.5923 3.67656,-2.66398 c 5.91634,-4.2869 19.64404,-18.96748 24.57506,-26.28088 2.50282,-3.71204 6.02454,-10.1518 7.82604,-14.31056 1.8015,-4.15878 3.68228,-7.57164 4.1795,-7.58416 1.57572,-0.0398 2.81268,14.66756 2.06096,24.50412 -0.85066,11.1315 -4.52536,21.1485 -11.69932,31.89156 l -5.17808,7.75424 4.9562,2.10606 c 2.88976,1.22796 9.13438,2.16482 14.97728,2.247 8.7665,0.1232 11.10346,-0.39648 18.66666,-4.15166 4.75508,-2.36094 12.38142,-7.64626 16.94746,-11.74516 l 8.30188,-7.45256 -2.0116,5.70146 c -6.18796,17.5386 -21.52922,32.81374 -40.83394,40.65794 -10.18548,4.13872 -25.23976,4.3854 -39.75822,0.65148 -5.5,-1.41452 -10.37246,-2.34784 -10.82768,-2.07402 -0.45524,0.27382 -1.11444,3.48208 -1.46492,7.129496 -0.4804,4.99972 -2.51806,9.78348 -8.28034,19.43954 -8.77406,14.70298 -13.51678,24.8865 -14.81624,31.81318 -0.49918,2.66084 -1.3586,4.8379 -1.90986,4.8379 -0.55124,0 -3.17204,-4.35 -5.824,-9.66666 z"
   id="path974" /></svg>
