<?xml version="1.0" encoding="UTF-8" standalone="no"?>
<svg
   width="512"
   height="512"
   version="1.2"
   id="svg8314"
   sodipodi:docname="icon2.svg"
   inkscape:version="1.1.1 (c3084ef, 2021-09-22)"
   inkscape:export-filename="/Users/darlan/Dropbox/labs/apps/transcribe/assets/icon.png"
   inkscape:export-xdpi="96"
   inkscape:export-ydpi="96"
   xmlns:inkscape="http://www.inkscape.org/namespaces/inkscape"
   xmlns:sodipodi="http://sodipodi.sourceforge.net/DTD/sodipodi-0.dtd"
   xmlns="http://www.w3.org/2000/svg"
   xmlns:svg="http://www.w3.org/2000/svg">
  <defs
     id="defs8318" />
  <sodipodi:namedview
     id="namedview8316"
     pagecolor="#ffffff"
     bordercolor="#666666"
     borderopacity="1.0"
     inkscape:pageshadow="2"
     inkscape:pageopacity="0.0"
     inkscape:pagecheckerboard="0"
     showgrid="false"
     inkscape:snap-bbox="true"
     inkscape:zoom="0.35117083"
     inkscape:cx="264.82837"
     inkscape:cy="509.72343"
     inkscape:window-width="1440"
     inkscape:window-height="847"
     inkscape:window-x="0"
     inkscape:window-y="25"
     inkscape:window-maximized="1"
     inkscape:current-layer="svg8314"
     showguides="false" />
  <path
     sodipodi:type="star"
     style="fill:#629438;fill-opacity:1;stroke:#88c057;stroke-width:30;stroke-miterlimit:4;stroke-dasharray:none;stroke-opacity:1"
     id="path39065"
     inkscape:flatsided="true"
     sodipodi:sides="6"
     sodipodi:cx="155.21072"
     sodipodi:cy="140.56821"
     sodipodi:r1="185.32211"
     sodipodi:r2="254.08467"
     sodipodi:arg1="1.0471976"
     sodipodi:arg2="1.5707963"
     inkscape:rounded="0.14184295"
     inkscape:randomized="0"
     transform="rotate(90,147.88947,248.67874)"
     d="M 247.87177,301.06187 C 225.10688,314.20519 85.314553,314.20518 62.54966,301.06186 39.784766,287.91854 -30.11139,166.85483 -30.111389,140.5682 c 10e-7,-26.28664 69.89617,-147.350339 92.661064,-160.493656 22.764895,-13.143316 162.557215,-13.143309 185.322115,10e-6 22.76489,13.1433183 92.66105,134.207026 92.66105,160.493666 0,26.28663 -69.89617,147.35033 -92.66107,160.49365 z" />
  <path
     sodipodi:type="star"
     style="fill:none;fill-opacity:1"
     id="path42593"
     inkscape:flatsided="true"
     sodipodi:sides="6"
     sodipodi:cx="155.21072"
     sodipodi:cy="140.56821"
     sodipodi:r1="185.32211"
     sodipodi:r2="254.08467"
     sodipodi:arg1="1.0471976"
     sodipodi:arg2="1.5707963"
     inkscape:rounded="0.14184295"
     inkscape:randomized="0"
     transform="rotate(90,147.88947,248.67874)"
     d="M 247.87177,301.06187 C 225.10688,314.20519 85.314553,314.20518 62.54966,301.06186 39.784766,287.91854 -30.11139,166.85483 -30.111389,140.5682 c 10e-7,-26.28664 69.89617,-147.350339 92.661064,-160.493656 22.764895,-13.143316 162.557215,-13.143309 185.322115,10e-6 22.76489,13.1433183 92.66105,134.207026 92.66105,160.493666 0,26.28663 -69.89617,147.35033 -92.66107,160.49365 z" />
  <path
     style="fill:#d13834;stroke:none;stroke-width:3.78079;stroke-opacity:1;fill-opacity:1"
     d="m 314.25825,195.13111 c -0.35161,-0.24575 -0.75994,-0.40076 -1.18717,-0.45369 -1.51231,-0.18526 -3.02842,-0.35918 -4.54073,-0.56334 -0.54065,-0.0529 -1.08509,-0.0945 -1.62197,-0.14745 -11.01722,-0.18148 -17.9323,0.77884 -22.10252,1.79209 -2.26469,0.552 -2.67302,3.51992 -0.66163,4.70331 13.0702,7.69392 16.67708,17.61472 17.50507,24.17062 0.30247,2.39702 -2.5596,3.85641 -4.28742,2.16639 -10.54841,-10.29888 -23.84924,-11.8906 -29.48263,-12.07586 -1.4745,-0.0492 -2.66168,1.14937 -2.63521,2.62388 0.34783,22.43523 -8.19677,36.80224 -12.14013,42.22012 -1.06618,1.46317 -3.2477,1.38755 -4.22315,-0.13233 -6.18915,-9.63724 -6.28368,-35.09711 -6.17025,-42.59064 0.0189,-1.32328 -0.97923,-2.4008 -2.29494,-2.57094 -11.16847,-1.44426 -24.33697,7.49353 -32.34092,14.08724 -2.05296,1.69001 -5.04735,-0.4915 -3.98117,-2.92634 6.25721,-14.28762 15.80372,-22.06471 20.99096,-25.45608 1.72783,-1.13046 1.44049,-3.75811 -0.48393,-4.49915 -1.40268,-0.54065 -2.9339,-0.94141 -4.5483,-1.22497 -0.28734,-0.0529 -0.59359,-0.0567 -0.8847,-0.0151 -9.16843,1.24767 -18.17428,2.99061 -26.91548,5.3347 -0.38564,0.10208 -0.74481,0.28734 -1.05106,0.54444 -19.29339,16.05325 -31.40705,39.16524 -31.40705,64.8633 0,48.47355 43.07458,87.76734 96.20608,87.76734 53.13149,0 96.20608,-39.29379 96.20608,-87.76734 0.004,-28.49585 -14.88499,-53.8196 -37.94783,-69.85017 z"
     id="path826" />
  <g
     id="g3561"
     transform="matrix(0.73415883,0,0,0.73415883,-152.29229,253.70474)">
    <path
       style="fill:#88c057;stroke-width:5.14983"
       d="m 631.48336,-87.67286 c -13.19387,-8.456023 -37.97486,-20.23884 -61.78252,-9.352093 -2.29168,1.050565 -4.90264,-0.60253 -4.90264,-3.125947 v -21.88163 c 0.005,-5.05714 -3.42979,-9.1976 -7.6269,-9.1976 h -11.44808 c -4.19711,0 -7.63205,4.14046 -7.63205,9.1976 v 23.179387 c 0,2.188678 -1.98268,3.846924 -4.13016,3.404038 -9.66623,-1.992984 -34.76651,-5.093185 -58.76987,9.243947 -3.28559,1.962085 -1.38016,7.111916 2.38952,6.421839 11.17513,-2.044483 25.88305,-3.450387 35.82222,0.473784 2.60582,1.024816 2.98176,4.588499 0.63858,6.123149 -7.06042,4.609099 -20.08434,15.207451 -28.61761,34.694411 -1.45225,3.316491 2.62642,6.287943 5.42277,3.985969 10.9022,-8.981305 28.83906,-21.150356 44.05166,-19.18827 1.79214,0.231742 3.15169,1.694294 3.12595,3.501885 -0.1545,10.206965 -0.0258,44.8859262 8.40452,58.0128451 1.32866,2.0702321 4.30526,2.1732287 5.75236,0.1802441 5.37127,-7.37970767 17.01504,-26.9490652 16.53611,-57.5081612 -0.0309,-2.008434 1.581,-3.640931 3.58943,-3.573983 7.67325,0.247192 25.79035,2.415271 40.15838,16.44856 2.35347,2.301974 6.2519,0.314139 5.83991,-2.950853 -1.12781,-8.934957 -6.0459,-22.448113 -23.84887,-32.928019 -2.70366,-1.591298 -2.24532,-5.639065 0.79823,-6.38579 6.14889,-1.508901 16.74725,-2.945704 34.21547,-2.368923 3.54824,0.108147 4.99534,-4.495802 2.01359,-6.406389 z"
       id="path824" />
    <path
       style="fill:#ed7161;stroke-width:5.14983"
       d="m 452.89237,47.139413 c -1.76124,0 -3.47614,-0.90122 -4.434,-2.523417 -3.85208,-6.504237 -6.37549,-13.688251 -7.50331,-21.351199 -0.41198,-2.816958 1.53465,-5.433072 4.34646,-5.845058 2.86331,-0.442886 5.43307,1.53465 5.84506,4.346457 0.91667,6.246745 3.05385,12.333845 6.17465,17.602122 1.4471,2.44617 0.64372,5.608166 -1.8076,7.055269 -0.82397,0.484084 -1.73034,0.715826 -2.62126,0.715826 z"
       id="path828" />
    <path
       style="fill:#ed7161;stroke-width:5.14983"
       d="m 446.69712,6.1570588 c -0.11844,0 -0.24204,-0.00515 -0.36048,-0.015449 -2.84271,-0.1956936 -4.97989,-2.6573128 -4.7842,-5.48971978 0.48409,-6.83382562 1.88484,-13.47195802 4.17652,-19.74445102 0.97331,-2.672762 3.91902,-4.032318 6.60723,-3.069299 2.67276,0.973318 4.04262,3.93447 3.0693,6.607233 -1.96209,5.360973 -3.162,11.0515363 -3.57398,16.9171937 -0.19055,2.7191107 -2.45132,4.7944926 -5.13439,4.7944921 z"
       id="path833" />
  </g>
</svg>
